<?xml version="1.0" encoding="UTF-8" standalone="no"?>
<!-- Created with Inkscape (http://www.inkscape.org/) -->

<svg
   width="500"
   height="500"
   viewBox="0 0 132.29166 132.29167"
   version="1.1"
   id="svg1"
   xml:space="preserve"
   xmlns="http://www.w3.org/2000/svg"
   xmlns:svg="http://www.w3.org/2000/svg"><defs
     id="defs1"><linearGradient
       id="swatch7"><stop
         style="stop-color:#342f08;stop-opacity:1;"
         offset="0"
         id="stop7" /></linearGradient></defs><g
     id="layer1"><g
       id="g3"
       transform="matrix(0.36787624,0,0,0.36978437,7.5179658,6.6282282)">
	<polygon
   style="fill:#e4e4e4"
   points="277.846,58.025 227.321,7.5 40.342,7.5 40.342,310.688 277.846,310.688 "
   id="polygon1" />
	<polygon
   style="fill:#007934"
   points="40.342,7.5 227.321,7.5 235.14,32.763 40.342,32.763 "
   id="polygon2" />
	<path
   style="fill:#007934"
   d="m 209.481,138.248 c 5.465,-5.466 5.467,-14.329 0,-19.795 l -48.938,48.937 -39.039,-39.039 39.039,-39.04 14.57,14.57 -22.366,22.368 9.897,9.897 27.315,-27.316 c 2.735,-2.733 2.735,-7.165 0,-9.898 L 165.491,74.463 c -2.733,-2.733 -7.163,-2.733 -9.897,0 l -48.938,48.938 c -2.732,2.733 -2.732,7.165 0,9.898 l 48.938,48.938 c 2.734,2.733 7.164,2.733 9.897,0 z"
   id="path2" />
	<polygon
   style="fill:#d1d3d3"
   points="277.846,58.025 227.321,7.5 227.321,58.025 "
   id="polygon3" />
	<path
   style="fill:#333e48"
   d="m 185.291,261.484 c 0,3.457 -0.597,5.945 -1.789,7.466 -1.192,1.521 -3.112,2.281 -5.759,2.281 -2.473,0 -4.344,-0.766 -5.612,-2.297 -1.269,-1.531 -1.903,-3.992 -1.903,-7.384 V 233.392 H 157.2 v 29.175 c 0,6.28 1.756,11.093 5.267,14.44 3.512,3.347 8.538,5.021 15.08,5.021 6.694,0 11.819,-1.723 15.375,-5.168 3.555,-3.446 5.333,-8.308 5.333,-14.587 v -28.88 h -12.963 v 28.091 z M 283.149,52.722 232.625,2.197 C 231.218,0.79 229.311,0 227.321,0 H 40.342 c -4.143,0 -7.5,3.358 -7.5,7.5 v 303.188 c 0,4.142 3.357,7.5 7.5,7.5 h 237.504 c 4.143,0 7.5,-3.358 7.5,-7.5 V 58.025 c 0,-1.989 -0.79,-3.896 -2.197,-5.303 z M 234.821,25.606 259.739,50.525 H 234.821 Z M 47.842,15 H 219.821 V 25.263 H 47.842 Z M 270.346,303.188 H 47.842 V 40.263 h 171.979 v 17.763 c 0,4.142 3.357,7.5 7.5,7.5 h 43.024 v 237.662 z m -62.017,-69.796 v 47.979 h 18.673 c 5.645,0 10.103,-1.252 13.373,-3.758 3.271,-2.505 4.906,-5.934 4.906,-10.288 0,-2.932 -0.668,-5.316 -2.002,-7.154 -1.335,-1.838 -3.49,-3.15 -6.465,-3.938 v -0.328 c 2.253,-0.547 4.069,-1.772 5.447,-3.676 1.379,-1.903 2.068,-4.201 2.068,-6.892 0,-4.091 -1.581,-7.105 -4.742,-9.041 -3.162,-1.937 -8.003,-2.905 -14.522,-2.905 z m 17.525,37.97 h -4.562 v -10.075 h 4.299 c 2.057,0 3.626,0.427 4.709,1.28 1.083,0.854 1.625,2.079 1.625,3.676 0,3.412 -2.025,5.119 -6.071,5.119 z m 5.184,-24.121 c 0,1.51 -0.508,2.647 -1.525,3.413 -1.018,0.766 -2.456,1.148 -4.315,1.148 h -3.905 v -8.598 h 3.643 c 4.068,0 6.102,1.346 6.102,4.037 z m -85.785,-9.878 c -3.041,-2.647 -7.592,-3.971 -13.651,-3.971 h -16.606 v 47.979 h 12.963 v -15.917 h 3.644 c 5.819,0 10.31,-1.46 13.472,-4.381 3.161,-2.92 4.742,-7.061 4.742,-12.421 -0.002,-4.879 -1.523,-8.642 -4.564,-11.289 z m -10.287,15.884 c -1.149,1.094 -2.697,1.641 -4.645,1.641 h -2.363 v -11.026 h 3.348 c 3.588,0 5.383,1.619 5.383,4.857 -0.001,1.924 -0.575,3.434 -1.723,4.528 z m -45.535,-9.715 c -5.885,0 -10.414,1.68 -13.586,5.038 -3.173,3.359 -4.759,8.177 -4.759,14.456 0,6.083 1.712,10.77 5.136,14.063 3.424,3.293 8.232,4.939 14.424,4.939 2.975,0 5.535,-0.197 7.68,-0.591 2.143,-0.394 4.222,-1.104 6.234,-2.133 v -9.222 c -2.21,1.028 -4.261,1.755 -6.152,2.182 -1.893,0.427 -3.967,0.64 -6.22,0.64 -2.473,0 -4.425,-0.591 -5.858,-1.772 -1.433,-1.181 -2.193,-2.811 -2.28,-4.89 h 22.939 v -5.71 c 0,-5.491 -1.526,-9.697 -4.578,-12.618 -3.052,-2.921 -7.379,-4.382 -12.98,-4.382 z m -5.119,14.637 c 0.175,-2.035 0.771,-3.528 1.789,-4.479 1.017,-0.952 2.28,-1.428 3.79,-1.428 1.641,0 2.948,0.537 3.921,1.608 0.974,1.072 1.482,2.505 1.527,4.299 z"
   id="path3" />
</g><g
       id="g1"
       transform="matrix(-0.07910917,-0.00994034,-0.00994044,0.07910992,53.904754,2.4274541)"
       style="opacity:1;fill:#ffffff;fill-opacity:1;fill-rule:evenodd;stroke:#000000;stroke-width:14.6776;stroke-dasharray:none;stroke-dashoffset:0;stroke-opacity:1"><path
         style="fill:#ffffff;fill-opacity:1;fill-rule:evenodd;stroke:#000000;stroke-width:14.6776;stroke-dasharray:none;stroke-dashoffset:0;stroke-opacity:1"
         d="M 217.396,82.638 144.703,9.945 H 97.812 c -12.239,0 -18.367,14.797 -9.713,23.451 l 35.266,35.266 c 14.904,14.904 15.816,39.186 1.327,54.492 -15.033,15.88 -40.099,16.14 -55.46,0.78 L 33.395,88.098 C 24.741,79.445 9.944,85.574 9.944,97.813 v 46.891 l 72.693,72.693 h 72.633 l 139.334,139.334 v 72.633 l 72.693,72.693 h 46.891 c 12.239,0 18.367,-14.797 9.713,-23.451 L 388.635,443.34 c -14.904,-14.904 -15.816,-39.186 -1.327,-54.492 15.034,-15.88 40.1,-16.14 55.462,-0.778 l 35.835,35.835 c 8.654,8.654 23.451,2.524 23.451,-9.713 V 367.301 L 429.363,294.608 H 356.73 L 217.396,155.271 Z"
         id="path1" /><path
         d="m 414.19,512.001 h -46.891 c -2.637,0 -5.166,-1.047 -7.032,-2.912 l -72.693,-72.693 c -1.864,-1.866 -2.912,-4.394 -2.912,-7.032 V 360.849 L 260.49,336.678 c -3.884,-3.885 -3.884,-10.18 0,-14.064 3.885,-3.882 10.18,-3.882 14.064,0 l 27.085,27.085 c 1.864,1.866 2.912,4.394 2.912,7.032 v 68.515 l 66.868,66.868 h 42.773 c 2.205,0 3.142,-1.466 3.506,-2.343 0.361,-0.874 0.737,-2.574 -0.823,-4.133 l -35.266,-35.266 c -18.759,-18.757 -19.44,-49.425 -1.519,-68.361 9.115,-9.629 21.425,-15.03 34.663,-15.212 13.252,-0.17 25.69,4.874 35.054,14.236 l 35.835,35.836 c 1.558,1.558 3.259,1.185 4.134,0.821 0.874,-0.362 2.341,-1.298 2.341,-3.504 v -42.773 l -66.868,-66.868 h -68.515 c -2.637,0 -5.166,-1.047 -7.032,-2.912 l -85.973,-85.973 c -3.884,-3.885 -3.884,-10.18 0,-14.064 3.885,-3.882 10.18,-3.882 14.064,0 l 83.06,83.061 h 68.515 c 2.637,0 5.166,1.047 7.032,2.912 l 72.693,72.693 c 1.864,1.866 2.912,4.394 2.912,7.032 v 46.891 c 0,9.611 -5.737,18.2 -14.618,21.878 -8.882,3.678 -19.011,1.663 -25.808,-5.132 l -35.835,-35.836 c -5.534,-5.532 -12.925,-8.48 -20.717,-8.414 -7.823,0.107 -15.1,3.303 -20.491,8.997 -10.586,11.186 -10.077,29.411 1.138,40.625 l 35.267,35.266 c 6.796,6.798 8.812,16.929 5.133,25.808 -3.685,8.883 -12.272,14.622 -21.884,14.622 z"
         id="path2-0"
         style="fill:#ffffff;fill-opacity:1;fill-rule:evenodd;stroke:#000000;stroke-width:14.6776;stroke-dasharray:none;stroke-dashoffset:0;stroke-opacity:1" /><path
         d="m 239.395,311.464 c -2.544,0 -5.09,-0.971 -7.032,-2.912 L 151.153,227.34 H 82.637 c -2.637,0 -5.166,-1.047 -7.032,-2.912 L 2.912,151.735 C 1.047,149.869 0,147.341 0,144.703 V 97.812 c 0,-9.611 5.737,-18.2 14.618,-21.878 8.882,-3.675 19.01,-1.663 25.808,5.132 l 35.835,35.836 c 5.533,5.532 12.877,8.585 20.718,8.413 7.821,-0.107 15.098,-3.301 20.489,-8.997 10.588,-11.185 10.079,-29.409 -1.136,-40.624 L 81.067,40.428 C 74.269,33.629 72.255,23.498 75.933,14.618 79.611,5.738 88.199,0.001 97.812,0.001 h 46.892 c 2.637,0 5.166,1.047 7.032,2.912 l 72.691,72.693 c 1.864,1.866 2.912,4.394 2.912,7.032 v 68.515 l 22.324,22.323 c 3.884,3.885 3.884,10.18 0,14.064 -3.885,3.882 -10.18,3.882 -14.064,0 l -25.236,-25.236 c -1.864,-1.866 -2.912,-4.394 -2.912,-7.032 V 86.757 L 140.583,19.889 H 97.812 c -2.205,0 -3.141,1.466 -3.504,2.342 -0.362,0.875 -0.739,2.575 0.822,4.135 l 35.266,35.264 c 18.76,18.76 19.441,49.426 1.517,68.361 -9.113,9.627 -21.421,15.029 -34.66,15.212 -0.229,0.003 -0.461,0.005 -0.689,0.005 -12.986,0 -25.164,-5.042 -34.364,-14.241 L 26.364,95.129 c -1.558,-1.558 -3.26,-1.184 -4.134,-0.821 -0.874,0.363 -2.342,1.298 -2.342,3.504 v 42.773 l 66.868,66.868 h 68.515 c 2.637,0 5.166,1.047 7.032,2.912 l 84.123,84.123 c 3.883,3.885 3.883,10.18 0,14.064 -1.941,1.941 -4.487,2.912 -7.031,2.912 z"
         id="path3-9"
         style="fill:#ffffff;fill-opacity:1;fill-rule:evenodd;stroke:#000000;stroke-width:14.6776;stroke-dasharray:none;stroke-dashoffset:0;stroke-opacity:1" /></g><path
       fill="#494c4e"
       d="m 115.66635,108.0711 -1.08719,0.6072 c -1.27721,0.70667 -2.77115,-0.48409 -2.36754,-1.88685 l 0.3347,-1.18161 c 0.24385,-0.87378 -0.26267,-1.78068 -1.13452,-2.03131 l -3.14353,-0.89046 c -0.87376,-0.24385 -1.78068,0.26268 -2.0313,1.13453 l -0.32207,1.13702 c -0.10243,0.44361 -0.3893,0.82236 -0.7886,1.04101 -0.79003,0.44126 -1.78818,0.1585 -2.22944,-0.63153 l -0.6072,-1.08718 c -0.44127,-0.79004 -1.43941,-1.07278 -2.22945,-0.63153 l -2.860994,1.59792 c -0.790033,0.44127 -1.072781,1.4394 -0.631531,2.22945 l 0.60721,1.08718 c 0.441249,0.79003 0.158502,1.78818 -0.631532,2.22944 -0.395731,0.22505 -0.868553,0.27097 -1.299921,0.12548 l -1.137025,-0.32208 c -0.873763,-0.24386 -1.780674,0.26267 -2.031298,1.13452 l -0.890459,3.14352 c -0.243857,0.87378 0.262669,1.78068 1.134521,2.0313 0.4236,0.11999 0.867818,0.20971 1.285098,0.35198 0.387771,0.12212 0.709771,0.39573 0.892928,0.75869 0.44125,0.79004 0.158495,1.78821 -0.63153,2.22945 l -1.087176,0.60722 c -0.790048,0.44125 -1.072788,1.43941 -0.631534,2.22945 l 1.597919,2.86098 c 0.441261,0.79003 1.439413,1.07277 2.229449,0.63154 l 1.087176,-0.60722 c 0.790033,-0.44124 1.788193,-0.15851 2.229441,0.63153 0.212994,0.3463 0.277069,0.76393 0.177689,1.15817 -0.0977,0.42991 -0.254301,0.85518 -0.374278,1.27877 -0.24386,0.87378 0.262665,1.78068 1.134527,2.0313 l 3.14352,0.89044 c 0.87376,0.24387 1.78067,-0.26265 2.03128,-1.13452 l 0.32208,-1.13701 c 0.10243,-0.44357 0.38928,-0.82235 0.78861,-1.04098 0.79003,-0.44126 1.78818,-0.1585 2.22944,0.63152 l 0.6072,1.08718 c 0.44126,0.79003 1.43942,1.07278 2.22946,0.63152 l 2.86098,-1.59792 c 0.79003,-0.44125 1.07279,-1.43942 0.63154,-2.22945 l -0.60722,-1.08717 c -0.44124,-0.79004 -0.15851,-1.78818 0.63153,-2.22945 0.39574,-0.22503 0.86856,-0.27098 1.29994,-0.12548 l 1.137,0.32208 c 0.87376,0.24387 1.78069,-0.26266 2.03131,-1.13452 l 0.89046,-3.14353 c 0.24386,-0.87377 -0.26267,-1.78068 -1.13452,-2.03128 l -1.18163,-0.33474 c -1.40603,-0.39203 -1.63624,-2.28827 -0.36486,-3.0054 l 1.08717,-0.6072 c 0.79003,-0.44126 1.07279,-1.43941 0.63154,-2.22945 l -1.59791,-2.86098 c -0.44124,-0.79004 -1.43942,-1.0728 -2.22946,-0.63154 z m -7.44913,13.54412 c -3.82356,2.13555 -8.319486,-1.41786 -7.12602,-5.63107 1.19347,-4.21321 6.88508,-4.88083 9.0206,-1.05728 1.32377,2.37013 0.47553,5.36461 -1.89458,6.68835 z"
       id="path1-2"
       style="fill:#ffffff;fill-opacity:1;stroke:#000000;stroke-width:0.712866;stroke-dasharray:none;stroke-opacity:1" /></g></svg>
